# xmcd
#
# Track frame offsets:
# 182
# 16485
# 30835
# 50677
# 67537
# 82562
# 92480
# 107397
# 120915
# 132352
# 149562
#
# Disc length: 2471 seconds
#
#
# Revision: 2
# Processed by: cddbd v1.5.2PL0 Copyright (c) Steve Scherf et al.
# Submitted via: FreeRIP 2.944 
#
DISCID=7609a50b
DTITLE=Antonio Carlos Jobim - Passarim
DYEAR=1987
DGENRE=MPB
TTITLE0=Passarim
TTITLE1=Bebel
TTITLE2=Borzeguim
TTITLE3=Anos Dourados
TTITLE4=Isabella
TTITLE5=Fascinatin' Rhythm
TTITLE6=Chansong
TTITLE7=Samba Do Soho
TTITLE8=Luiza
TTITLE9=Brasil Nativo
TTITLE10=Gabriela
EXTD=
EXTT0=
EXTT1=
EXTT2=
EXTT3=
EXTT4=
EXTT5=
EXTT6=
EXTT7=
EXTT8=
EXTT9=
EXTT10=
PLAYORDER=
